
<svg width="1920px" height="674px" viewBox="0 0 1920 674" version="1.1" xmlns="http://www.w3.org/2000/svg" xmlns:xlink="http://www.w3.org/1999/xlink">
    <!-- Generator: Sketch 51.3 (57544) - http://www.bohemiancoding.com/sketch -->
    <desc>Created with Sketch.</desc>
    <defs>
        <linearGradient x1="50%" y1="3.47019531%" x2="50%" y2="100%" id="linearGradient-1">
            <stop stop-color="#000000" offset="0%"></stop>
            <stop stop-color="#480098" offset="100%"></stop>
        </linearGradient>
        <linearGradient x1="50%" y1="78.2310711%" x2="50%" y2="21.1762743%" id="linearGradient-2">
            <stop stop-color="#000000" offset="0%"></stop>
            <stop stop-color="#480098" offset="100%"></stop>
        </linearGradient>
    </defs>
    <g id="Page-1" stroke="none" stroke-width="1" fill="none" fill-rule="evenodd">
        <g id="Artboard" fill-rule="nonzero">
            <g id="BG" transform="translate(-1706.000000, 0.000000)">
                <rect id="Rectangle" fill="url(#linearGradient-1)" x="1706" y="0" width="1920" height="508"></rect>
                <circle id="Oval" fill="url(#linearGradient-2)" opacity="0.503348214" cx="3292.5" cy="308.5" r="179.5"></circle>
                <polygon id="Path-2-Copy" fill="#120121" opacity="0.384765625" points="0 599 0 449.141463 130.463327 412.00936 212.088099 449.141463 398.002328 389.801277 505.670463 431.45725 550.376302 412.00936 633.668661 449.141463 796.352675 389.801277 871.452105 431.45725 1007.87524 362.191443 1095.11181 412.00936 1372.35182 320.227025 1459.35637 362.191443 1775.63242 199 2008.77562 320.227025 2075.2761 281.457787 2150.95556 333.339917 2228.1141 294.365049 2329.61941 374.592537 2419.45161 308.822447 2634.26586 389.801277 2740.51292 333.339917 2916.37812 412.00936 3028.73 362.191443 3133.03396 412.00936 3260.55363 374.592537 3343.03395 431.45725 3500.13517 399 3692.76325 471.626356 3736.61354 431.45725 3813 471.626356 3813 599"></polygon>
                <path d="M1706,674 L1706,509.022865 L1786.33776,468.14466 L1836.60133,509.022865 L1951.08509,443.696097 L2017.38585,489.554565 L2044.91517,468.14466 L2096.20562,509.022865 L2196.3845,443.696097 L2242.62983,489.554565 L2326.63757,413.300822 L2380.35681,468.14466 L2551.07791,367.102791 L2604.65428,413.300822 L2880,193 L3112.38257,354.547653 L3169.73853,313.172143 L3328.14955,443.696097 L3393.57522,381.538587 L3501.87092,468.14466 L3571.05587,413.300822 L3635.28501,468.14466 L3713.8101,426.953011 L3764.6005,489.554565 L3861.34156,453.82284 L3979.95964,533.776164 L4006.96213,489.554565 L4054,533.776164 L4054,674 L1706,674 Z" id="Path-2" fill="#000000"></path>
                <g id="Group" opacity="0.1640625" transform="translate(1719.000000, 71.000000)" fill="#000000" stroke="#000000" stroke-linecap="square" stroke-width="8">
                    <path d="M0,63 L1920,63 L0,63 Z M0,93 L1920,93 L0,93 Z" id="Line-2-Copy"></path>
                    <path d="M0,1 L1920,1 L0,1 Z M0,31 L1920,31 L0,31 Z" id="Line-2"></path>
                    <path d="M0,188 L1920,188 L0,188 Z M0,218 L1920,218 L0,218 Z" id="Line-2-Copy"></path>
                    <path d="M0,126 L1920,126 L0,126 Z M0,156 L1920,156 L0,156 Z" id="Line-2"></path>
                    <path d="M0,313 L1920,313 L0,313 Z M0,343 L1920,343 L0,343 Z" id="Line-2-Copy"></path>
                    <path d="M0,251 L1920,251 L0,251 Z M0,281 L1920,281 L0,281 Z" id="Line-2"></path>
                    <path d="M0,438 L1920,438 L0,438 Z M0,468 L1920,468 L0,468 Z" id="Line-2-Copy"></path>
                    <path d="M0,376 L1920,376 L0,376 Z M0,406 L1920,406 L0,406 Z" id="Line-2"></path>
                </g>
            </g>
        </g>
    </g>
</svg>